<mxfile host="app.diagrams.net" agent="Mozilla/5.0 (Windows NT 10.0; Win64; x64) AppleWebKit/537.36 (KHTML, like Gecko) Chrome/138.0.0.0 Safari/537.36" version="28.0.6">
  <diagram id="C5RBs43oDa-KdzZeNtuy" name="Page-1">
    <mxGraphModel dx="1281" dy="1731" grid="1" gridSize="10" guides="1" tooltips="1" connect="1" arrows="1" fold="1" page="1" pageScale="1" pageWidth="827" pageHeight="1169" math="0" shadow="0">
      <root>
        <mxCell id="WIyWlLk6GJQsqaUBKTNV-0" />
        <mxCell id="WIyWlLk6GJQsqaUBKTNV-1" parent="WIyWlLk6GJQsqaUBKTNV-0" />
        <mxCell id="WIyWlLk6GJQsqaUBKTNV-5" value="No" style="edgeStyle=orthogonalEdgeStyle;rounded=0;html=1;jettySize=auto;orthogonalLoop=1;fontSize=11;endArrow=block;endFill=0;endSize=8;strokeWidth=1;shadow=0;labelBackgroundColor=none;" parent="WIyWlLk6GJQsqaUBKTNV-1" source="WIyWlLk6GJQsqaUBKTNV-6" target="WIyWlLk6GJQsqaUBKTNV-7" edge="1">
          <mxGeometry y="10" relative="1" as="geometry">
            <mxPoint as="offset" />
          </mxGeometry>
        </mxCell>
        <mxCell id="EH7DkAVhaPCO1xRlEi8g-59" value="" style="edgeStyle=orthogonalEdgeStyle;rounded=0;orthogonalLoop=1;jettySize=auto;html=1;" edge="1" parent="WIyWlLk6GJQsqaUBKTNV-1" source="WIyWlLk6GJQsqaUBKTNV-6" target="EH7DkAVhaPCO1xRlEi8g-6">
          <mxGeometry relative="1" as="geometry" />
        </mxCell>
        <mxCell id="WIyWlLk6GJQsqaUBKTNV-6" value="Is PIN Correct?" style="rhombus;whiteSpace=wrap;html=1;shadow=0;fontFamily=Helvetica;fontSize=12;align=center;strokeWidth=1;spacing=6;spacingTop=-4;" parent="WIyWlLk6GJQsqaUBKTNV-1" vertex="1">
          <mxGeometry x="310" y="-150" width="120" height="100" as="geometry" />
        </mxCell>
        <mxCell id="WIyWlLk6GJQsqaUBKTNV-7" value="Show Error" style="rounded=1;whiteSpace=wrap;html=1;fontSize=12;glass=0;strokeWidth=1;shadow=0;" parent="WIyWlLk6GJQsqaUBKTNV-1" vertex="1">
          <mxGeometry x="640" y="-120" width="120" height="40" as="geometry" />
        </mxCell>
        <mxCell id="EH7DkAVhaPCO1xRlEi8g-43" style="edgeStyle=orthogonalEdgeStyle;rounded=0;orthogonalLoop=1;jettySize=auto;html=1;exitX=0.5;exitY=1;exitDx=0;exitDy=0;" edge="1" parent="WIyWlLk6GJQsqaUBKTNV-1" source="WIyWlLk6GJQsqaUBKTNV-12" target="EH7DkAVhaPCO1xRlEi8g-25">
          <mxGeometry relative="1" as="geometry" />
        </mxCell>
        <mxCell id="WIyWlLk6GJQsqaUBKTNV-12" value="1) Balance" style="rounded=1;whiteSpace=wrap;html=1;fontSize=12;glass=0;strokeWidth=1;shadow=0;" parent="WIyWlLk6GJQsqaUBKTNV-1" vertex="1">
          <mxGeometry x="120" y="140" width="120" height="40" as="geometry" />
        </mxCell>
        <mxCell id="EH7DkAVhaPCO1xRlEi8g-57" value="" style="edgeStyle=orthogonalEdgeStyle;rounded=0;orthogonalLoop=1;jettySize=auto;html=1;" edge="1" parent="WIyWlLk6GJQsqaUBKTNV-1" source="EH7DkAVhaPCO1xRlEi8g-0" target="EH7DkAVhaPCO1xRlEi8g-5">
          <mxGeometry relative="1" as="geometry" />
        </mxCell>
        <mxCell id="EH7DkAVhaPCO1xRlEi8g-0" value="Start" style="ellipse;whiteSpace=wrap;html=1;" vertex="1" parent="WIyWlLk6GJQsqaUBKTNV-1">
          <mxGeometry x="310" y="-360" width="120" height="80" as="geometry" />
        </mxCell>
        <mxCell id="EH7DkAVhaPCO1xRlEi8g-58" value="" style="edgeStyle=orthogonalEdgeStyle;rounded=0;orthogonalLoop=1;jettySize=auto;html=1;" edge="1" parent="WIyWlLk6GJQsqaUBKTNV-1" source="EH7DkAVhaPCO1xRlEi8g-5" target="WIyWlLk6GJQsqaUBKTNV-6">
          <mxGeometry relative="1" as="geometry" />
        </mxCell>
        <mxCell id="EH7DkAVhaPCO1xRlEi8g-5" value="Enter PIN" style="shape=parallelogram;perimeter=parallelogramPerimeter;whiteSpace=wrap;html=1;fixedSize=1;" vertex="1" parent="WIyWlLk6GJQsqaUBKTNV-1">
          <mxGeometry x="310" y="-230" width="120" height="60" as="geometry" />
        </mxCell>
        <mxCell id="EH7DkAVhaPCO1xRlEi8g-35" style="edgeStyle=orthogonalEdgeStyle;rounded=0;orthogonalLoop=1;jettySize=auto;html=1;exitX=0.5;exitY=1;exitDx=0;exitDy=0;entryX=0.5;entryY=0;entryDx=0;entryDy=0;" edge="1" parent="WIyWlLk6GJQsqaUBKTNV-1" source="EH7DkAVhaPCO1xRlEi8g-6" target="WIyWlLk6GJQsqaUBKTNV-12">
          <mxGeometry relative="1" as="geometry" />
        </mxCell>
        <mxCell id="EH7DkAVhaPCO1xRlEi8g-36" style="edgeStyle=orthogonalEdgeStyle;rounded=0;orthogonalLoop=1;jettySize=auto;html=1;exitX=0.5;exitY=1;exitDx=0;exitDy=0;entryX=0.5;entryY=0;entryDx=0;entryDy=0;" edge="1" parent="WIyWlLk6GJQsqaUBKTNV-1" source="EH7DkAVhaPCO1xRlEi8g-6" target="EH7DkAVhaPCO1xRlEi8g-7">
          <mxGeometry relative="1" as="geometry" />
        </mxCell>
        <mxCell id="EH7DkAVhaPCO1xRlEi8g-37" style="edgeStyle=orthogonalEdgeStyle;rounded=0;orthogonalLoop=1;jettySize=auto;html=1;exitX=0.5;exitY=1;exitDx=0;exitDy=0;entryX=0.5;entryY=0;entryDx=0;entryDy=0;" edge="1" parent="WIyWlLk6GJQsqaUBKTNV-1" source="EH7DkAVhaPCO1xRlEi8g-6" target="EH7DkAVhaPCO1xRlEi8g-10">
          <mxGeometry relative="1" as="geometry" />
        </mxCell>
        <mxCell id="EH7DkAVhaPCO1xRlEi8g-38" style="edgeStyle=orthogonalEdgeStyle;rounded=0;orthogonalLoop=1;jettySize=auto;html=1;exitX=0.5;exitY=1;exitDx=0;exitDy=0;entryX=0.5;entryY=0;entryDx=0;entryDy=0;" edge="1" parent="WIyWlLk6GJQsqaUBKTNV-1" source="EH7DkAVhaPCO1xRlEi8g-6" target="EH7DkAVhaPCO1xRlEi8g-11">
          <mxGeometry relative="1" as="geometry" />
        </mxCell>
        <mxCell id="EH7DkAVhaPCO1xRlEi8g-6" value="Show Menu" style="rounded=1;whiteSpace=wrap;html=1;" vertex="1" parent="WIyWlLk6GJQsqaUBKTNV-1">
          <mxGeometry x="310" y="10" width="120" height="60" as="geometry" />
        </mxCell>
        <mxCell id="EH7DkAVhaPCO1xRlEi8g-40" style="edgeStyle=orthogonalEdgeStyle;rounded=0;orthogonalLoop=1;jettySize=auto;html=1;exitX=0.5;exitY=1;exitDx=0;exitDy=0;" edge="1" parent="WIyWlLk6GJQsqaUBKTNV-1" source="EH7DkAVhaPCO1xRlEi8g-7" target="EH7DkAVhaPCO1xRlEi8g-25">
          <mxGeometry relative="1" as="geometry" />
        </mxCell>
        <mxCell id="EH7DkAVhaPCO1xRlEi8g-7" value="2) Withdraw" style="rounded=1;whiteSpace=wrap;html=1;" vertex="1" parent="WIyWlLk6GJQsqaUBKTNV-1">
          <mxGeometry x="250" y="140" width="120" height="40" as="geometry" />
        </mxCell>
        <mxCell id="EH7DkAVhaPCO1xRlEi8g-41" style="edgeStyle=orthogonalEdgeStyle;rounded=0;orthogonalLoop=1;jettySize=auto;html=1;exitX=0.5;exitY=1;exitDx=0;exitDy=0;entryX=0.5;entryY=0;entryDx=0;entryDy=0;" edge="1" parent="WIyWlLk6GJQsqaUBKTNV-1" source="EH7DkAVhaPCO1xRlEi8g-10" target="EH7DkAVhaPCO1xRlEi8g-25">
          <mxGeometry relative="1" as="geometry" />
        </mxCell>
        <mxCell id="EH7DkAVhaPCO1xRlEi8g-10" value="3) Deposit" style="rounded=1;whiteSpace=wrap;html=1;" vertex="1" parent="WIyWlLk6GJQsqaUBKTNV-1">
          <mxGeometry x="380" y="140" width="120" height="40" as="geometry" />
        </mxCell>
        <mxCell id="EH7DkAVhaPCO1xRlEi8g-42" style="edgeStyle=orthogonalEdgeStyle;rounded=0;orthogonalLoop=1;jettySize=auto;html=1;exitX=0.5;exitY=1;exitDx=0;exitDy=0;" edge="1" parent="WIyWlLk6GJQsqaUBKTNV-1" source="EH7DkAVhaPCO1xRlEi8g-11" target="EH7DkAVhaPCO1xRlEi8g-25">
          <mxGeometry relative="1" as="geometry" />
        </mxCell>
        <mxCell id="EH7DkAVhaPCO1xRlEi8g-11" value="4) Exit" style="rounded=1;whiteSpace=wrap;html=1;" vertex="1" parent="WIyWlLk6GJQsqaUBKTNV-1">
          <mxGeometry x="510" y="140" width="120" height="40" as="geometry" />
        </mxCell>
        <mxCell id="EH7DkAVhaPCO1xRlEi8g-25" value="User Choice" style="rhombus;whiteSpace=wrap;html=1;" vertex="1" parent="WIyWlLk6GJQsqaUBKTNV-1">
          <mxGeometry x="320" y="230" width="100" height="110" as="geometry" />
        </mxCell>
        <mxCell id="EH7DkAVhaPCO1xRlEi8g-78" style="edgeStyle=orthogonalEdgeStyle;rounded=0;orthogonalLoop=1;jettySize=auto;html=1;exitX=0;exitY=0.5;exitDx=0;exitDy=0;entryX=0;entryY=0.5;entryDx=0;entryDy=0;" edge="1" parent="WIyWlLk6GJQsqaUBKTNV-1" source="EH7DkAVhaPCO1xRlEi8g-44" target="EH7DkAVhaPCO1xRlEi8g-6">
          <mxGeometry relative="1" as="geometry" />
        </mxCell>
        <mxCell id="EH7DkAVhaPCO1xRlEi8g-44" value="Show Balance" style="rounded=0;whiteSpace=wrap;html=1;" vertex="1" parent="WIyWlLk6GJQsqaUBKTNV-1">
          <mxGeometry x="70" y="390" width="130" height="40" as="geometry" />
        </mxCell>
        <mxCell id="EH7DkAVhaPCO1xRlEi8g-76" value="" style="edgeStyle=orthogonalEdgeStyle;rounded=0;orthogonalLoop=1;jettySize=auto;html=1;" edge="1" parent="WIyWlLk6GJQsqaUBKTNV-1" source="EH7DkAVhaPCO1xRlEi8g-45" target="EH7DkAVhaPCO1xRlEi8g-75">
          <mxGeometry relative="1" as="geometry" />
        </mxCell>
        <mxCell id="EH7DkAVhaPCO1xRlEi8g-45" value="Enter Deposit Amount" style="rounded=0;whiteSpace=wrap;html=1;" vertex="1" parent="WIyWlLk6GJQsqaUBKTNV-1">
          <mxGeometry x="220" y="390" width="140" height="40" as="geometry" />
        </mxCell>
        <mxCell id="EH7DkAVhaPCO1xRlEi8g-95" style="edgeStyle=orthogonalEdgeStyle;rounded=0;orthogonalLoop=1;jettySize=auto;html=1;exitX=1;exitY=0.5;exitDx=0;exitDy=0;entryX=1;entryY=0.5;entryDx=0;entryDy=0;" edge="1" parent="WIyWlLk6GJQsqaUBKTNV-1" source="EH7DkAVhaPCO1xRlEi8g-47" target="EH7DkAVhaPCO1xRlEi8g-92">
          <mxGeometry relative="1" as="geometry">
            <Array as="points">
              <mxPoint x="730" y="410" />
              <mxPoint x="730" y="810" />
            </Array>
          </mxGeometry>
        </mxCell>
        <mxCell id="EH7DkAVhaPCO1xRlEi8g-47" value="Exit" style="rounded=0;whiteSpace=wrap;html=1;" vertex="1" parent="WIyWlLk6GJQsqaUBKTNV-1">
          <mxGeometry x="540" y="390" width="130" height="40" as="geometry" />
        </mxCell>
        <mxCell id="EH7DkAVhaPCO1xRlEi8g-67" value="" style="group" vertex="1" connectable="0" parent="WIyWlLk6GJQsqaUBKTNV-1">
          <mxGeometry x="290" y="330" width="60" height="30" as="geometry" />
        </mxCell>
        <mxCell id="EH7DkAVhaPCO1xRlEi8g-50" style="edgeStyle=orthogonalEdgeStyle;rounded=0;orthogonalLoop=1;jettySize=auto;html=1;exitX=0.5;exitY=1;exitDx=0;exitDy=0;movable=1;resizable=1;rotatable=1;deletable=1;editable=1;locked=0;connectable=1;" edge="1" parent="EH7DkAVhaPCO1xRlEi8g-67" source="EH7DkAVhaPCO1xRlEi8g-25" target="EH7DkAVhaPCO1xRlEi8g-45">
          <mxGeometry relative="1" as="geometry" />
        </mxCell>
        <mxCell id="EH7DkAVhaPCO1xRlEi8g-66" value="If : 2" style="text;html=1;align=center;verticalAlign=middle;whiteSpace=wrap;rounded=0;movable=1;resizable=1;rotatable=1;deletable=1;editable=1;locked=0;connectable=1;" vertex="1" parent="EH7DkAVhaPCO1xRlEi8g-67">
          <mxGeometry width="60" height="30" as="geometry" />
        </mxCell>
        <mxCell id="EH7DkAVhaPCO1xRlEi8g-68" value="" style="group" vertex="1" connectable="0" parent="WIyWlLk6GJQsqaUBKTNV-1">
          <mxGeometry x="140" y="330" width="60" height="30" as="geometry" />
        </mxCell>
        <mxCell id="EH7DkAVhaPCO1xRlEi8g-49" style="edgeStyle=orthogonalEdgeStyle;rounded=0;orthogonalLoop=1;jettySize=auto;html=1;exitX=0.5;exitY=1;exitDx=0;exitDy=0;entryX=0.5;entryY=0;entryDx=0;entryDy=0;movable=1;resizable=1;rotatable=1;deletable=1;editable=1;locked=0;connectable=1;" edge="1" parent="EH7DkAVhaPCO1xRlEi8g-68" source="EH7DkAVhaPCO1xRlEi8g-25" target="EH7DkAVhaPCO1xRlEi8g-44">
          <mxGeometry relative="1" as="geometry" />
        </mxCell>
        <mxCell id="EH7DkAVhaPCO1xRlEi8g-63" value="&lt;span style=&quot;font-size: 14px;&quot;&gt;If : 1&lt;/span&gt;" style="text;strokeColor=none;align=center;fillColor=none;html=1;verticalAlign=middle;whiteSpace=wrap;rounded=0;movable=1;resizable=1;rotatable=1;deletable=1;editable=1;locked=0;connectable=1;" vertex="1" parent="EH7DkAVhaPCO1xRlEi8g-68">
          <mxGeometry width="60" height="30" as="geometry" />
        </mxCell>
        <mxCell id="EH7DkAVhaPCO1xRlEi8g-69" value="" style="group" vertex="1" connectable="0" parent="WIyWlLk6GJQsqaUBKTNV-1">
          <mxGeometry x="380" y="-40" width="60" height="30" as="geometry" />
        </mxCell>
        <mxCell id="EH7DkAVhaPCO1xRlEi8g-62" style="edgeStyle=orthogonalEdgeStyle;rounded=0;orthogonalLoop=1;jettySize=auto;html=1;exitX=0;exitY=0.5;exitDx=0;exitDy=0;entryX=0.5;entryY=0;entryDx=0;entryDy=0;" edge="1" parent="EH7DkAVhaPCO1xRlEi8g-69" source="EH7DkAVhaPCO1xRlEi8g-60" target="EH7DkAVhaPCO1xRlEi8g-6">
          <mxGeometry relative="1" as="geometry" />
        </mxCell>
        <mxCell id="EH7DkAVhaPCO1xRlEi8g-60" value="Yes" style="text;html=1;align=center;verticalAlign=middle;whiteSpace=wrap;rounded=0;movable=1;resizable=1;rotatable=1;deletable=1;editable=1;locked=0;connectable=1;" vertex="1" parent="EH7DkAVhaPCO1xRlEi8g-69">
          <mxGeometry width="60" height="30" as="geometry" />
        </mxCell>
        <mxCell id="EH7DkAVhaPCO1xRlEi8g-71" value="" style="group" vertex="1" connectable="0" parent="WIyWlLk6GJQsqaUBKTNV-1">
          <mxGeometry x="380" y="330" width="140" height="100" as="geometry" />
        </mxCell>
        <mxCell id="EH7DkAVhaPCO1xRlEi8g-52" style="edgeStyle=orthogonalEdgeStyle;rounded=0;orthogonalLoop=1;jettySize=auto;html=1;exitX=0.5;exitY=1;exitDx=0;exitDy=0;entryX=0.5;entryY=0;entryDx=0;entryDy=0;" edge="1" parent="EH7DkAVhaPCO1xRlEi8g-71" source="EH7DkAVhaPCO1xRlEi8g-25" target="EH7DkAVhaPCO1xRlEi8g-46">
          <mxGeometry relative="1" as="geometry" />
        </mxCell>
        <mxCell id="EH7DkAVhaPCO1xRlEi8g-46" value="Enter Withdraw Amount" style="rounded=0;whiteSpace=wrap;html=1;" vertex="1" parent="EH7DkAVhaPCO1xRlEi8g-71">
          <mxGeometry y="60" width="140" height="40" as="geometry" />
        </mxCell>
        <mxCell id="EH7DkAVhaPCO1xRlEi8g-70" value="&lt;font style=&quot;font-size: 14px;&quot;&gt;If : 3&lt;/font&gt;" style="text;html=1;align=center;verticalAlign=middle;whiteSpace=wrap;rounded=0;" vertex="1" parent="EH7DkAVhaPCO1xRlEi8g-71">
          <mxGeometry x="14" width="60" height="30" as="geometry" />
        </mxCell>
        <mxCell id="EH7DkAVhaPCO1xRlEi8g-73" value="" style="group" vertex="1" connectable="0" parent="WIyWlLk6GJQsqaUBKTNV-1">
          <mxGeometry x="530" y="330" width="60" height="30" as="geometry" />
        </mxCell>
        <mxCell id="EH7DkAVhaPCO1xRlEi8g-53" style="edgeStyle=orthogonalEdgeStyle;rounded=0;orthogonalLoop=1;jettySize=auto;html=1;exitX=0.5;exitY=1;exitDx=0;exitDy=0;entryX=0.5;entryY=0;entryDx=0;entryDy=0;" edge="1" parent="EH7DkAVhaPCO1xRlEi8g-73" source="EH7DkAVhaPCO1xRlEi8g-25" target="EH7DkAVhaPCO1xRlEi8g-47">
          <mxGeometry relative="1" as="geometry" />
        </mxCell>
        <mxCell id="EH7DkAVhaPCO1xRlEi8g-72" value="&lt;font style=&quot;font-size: 14px;&quot;&gt;If : 4&lt;/font&gt;" style="text;html=1;align=center;verticalAlign=middle;whiteSpace=wrap;rounded=0;" vertex="1" parent="EH7DkAVhaPCO1xRlEi8g-73">
          <mxGeometry width="60" height="30" as="geometry" />
        </mxCell>
        <mxCell id="EH7DkAVhaPCO1xRlEi8g-86" style="edgeStyle=orthogonalEdgeStyle;rounded=0;orthogonalLoop=1;jettySize=auto;html=1;exitX=0;exitY=0.5;exitDx=0;exitDy=0;entryX=0;entryY=0.25;entryDx=0;entryDy=0;elbow=vertical;" edge="1" parent="WIyWlLk6GJQsqaUBKTNV-1" source="EH7DkAVhaPCO1xRlEi8g-75" target="EH7DkAVhaPCO1xRlEi8g-6">
          <mxGeometry relative="1" as="geometry">
            <Array as="points">
              <mxPoint x="20" y="520" />
              <mxPoint x="20" y="25" />
            </Array>
          </mxGeometry>
        </mxCell>
        <mxCell id="EH7DkAVhaPCO1xRlEi8g-75" value="Update Balance" style="whiteSpace=wrap;html=1;rounded=0;" vertex="1" parent="WIyWlLk6GJQsqaUBKTNV-1">
          <mxGeometry x="220" y="500" width="140" height="40" as="geometry" />
        </mxCell>
        <mxCell id="EH7DkAVhaPCO1xRlEi8g-79" value="Is Amount ≤ Balance?" style="rhombus;whiteSpace=wrap;html=1;rounded=0;" vertex="1" parent="WIyWlLk6GJQsqaUBKTNV-1">
          <mxGeometry x="370" y="490" width="160" height="120" as="geometry" />
        </mxCell>
        <mxCell id="EH7DkAVhaPCO1xRlEi8g-80" value="" style="edgeStyle=orthogonalEdgeStyle;rounded=0;orthogonalLoop=1;jettySize=auto;html=1;" edge="1" parent="WIyWlLk6GJQsqaUBKTNV-1" source="EH7DkAVhaPCO1xRlEi8g-46" target="EH7DkAVhaPCO1xRlEi8g-79">
          <mxGeometry relative="1" as="geometry" />
        </mxCell>
        <mxCell id="EH7DkAVhaPCO1xRlEi8g-85" style="edgeStyle=orthogonalEdgeStyle;rounded=0;orthogonalLoop=1;jettySize=auto;html=1;entryX=0.5;entryY=1;entryDx=0;entryDy=0;" edge="1" parent="WIyWlLk6GJQsqaUBKTNV-1" source="EH7DkAVhaPCO1xRlEi8g-81" target="EH7DkAVhaPCO1xRlEi8g-75">
          <mxGeometry relative="1" as="geometry" />
        </mxCell>
        <mxCell id="EH7DkAVhaPCO1xRlEi8g-81" value="Dispense Cash" style="whiteSpace=wrap;html=1;rounded=0;" vertex="1" parent="WIyWlLk6GJQsqaUBKTNV-1">
          <mxGeometry x="380" y="650" width="140" height="40" as="geometry" />
        </mxCell>
        <mxCell id="EH7DkAVhaPCO1xRlEi8g-84" value="" style="group" vertex="1" connectable="0" parent="WIyWlLk6GJQsqaUBKTNV-1">
          <mxGeometry x="450" y="610" width="60" height="30" as="geometry" />
        </mxCell>
        <mxCell id="EH7DkAVhaPCO1xRlEi8g-82" value="" style="edgeStyle=orthogonalEdgeStyle;rounded=0;orthogonalLoop=1;jettySize=auto;html=1;" edge="1" parent="EH7DkAVhaPCO1xRlEi8g-84" source="EH7DkAVhaPCO1xRlEi8g-79" target="EH7DkAVhaPCO1xRlEi8g-81">
          <mxGeometry relative="1" as="geometry" />
        </mxCell>
        <mxCell id="EH7DkAVhaPCO1xRlEi8g-83" value="Yes" style="text;html=1;align=center;verticalAlign=middle;whiteSpace=wrap;rounded=0;" vertex="1" parent="EH7DkAVhaPCO1xRlEi8g-84">
          <mxGeometry width="60" height="30" as="geometry" />
        </mxCell>
        <mxCell id="EH7DkAVhaPCO1xRlEi8g-91" style="edgeStyle=orthogonalEdgeStyle;rounded=0;orthogonalLoop=1;jettySize=auto;html=1;exitX=1;exitY=0.5;exitDx=0;exitDy=0;entryX=1;entryY=0.5;entryDx=0;entryDy=0;" edge="1" parent="WIyWlLk6GJQsqaUBKTNV-1" source="EH7DkAVhaPCO1xRlEi8g-87" target="EH7DkAVhaPCO1xRlEi8g-6">
          <mxGeometry relative="1" as="geometry" />
        </mxCell>
        <mxCell id="EH7DkAVhaPCO1xRlEi8g-87" value="Show Error" style="whiteSpace=wrap;html=1;rounded=0;" vertex="1" parent="WIyWlLk6GJQsqaUBKTNV-1">
          <mxGeometry x="560" y="530" width="120" height="40" as="geometry" />
        </mxCell>
        <mxCell id="EH7DkAVhaPCO1xRlEi8g-90" value="" style="group" vertex="1" connectable="0" parent="WIyWlLk6GJQsqaUBKTNV-1">
          <mxGeometry x="510" y="510" width="60" height="30" as="geometry" />
        </mxCell>
        <mxCell id="EH7DkAVhaPCO1xRlEi8g-88" value="" style="edgeStyle=orthogonalEdgeStyle;rounded=0;orthogonalLoop=1;jettySize=auto;html=1;" edge="1" parent="EH7DkAVhaPCO1xRlEi8g-90" source="EH7DkAVhaPCO1xRlEi8g-79" target="EH7DkAVhaPCO1xRlEi8g-87">
          <mxGeometry relative="1" as="geometry" />
        </mxCell>
        <mxCell id="EH7DkAVhaPCO1xRlEi8g-89" value="No" style="text;html=1;align=center;verticalAlign=middle;whiteSpace=wrap;rounded=0;" vertex="1" parent="EH7DkAVhaPCO1xRlEi8g-90">
          <mxGeometry width="60" height="30" as="geometry" />
        </mxCell>
        <mxCell id="EH7DkAVhaPCO1xRlEi8g-92" value="End" style="ellipse;whiteSpace=wrap;html=1;" vertex="1" parent="WIyWlLk6GJQsqaUBKTNV-1">
          <mxGeometry x="310" y="770" width="120" height="80" as="geometry" />
        </mxCell>
        <mxCell id="EH7DkAVhaPCO1xRlEi8g-94" style="edgeStyle=orthogonalEdgeStyle;rounded=0;orthogonalLoop=1;jettySize=auto;html=1;exitX=1;exitY=0.5;exitDx=0;exitDy=0;entryX=0.962;entryY=0.745;entryDx=0;entryDy=0;entryPerimeter=0;" edge="1" parent="WIyWlLk6GJQsqaUBKTNV-1" source="WIyWlLk6GJQsqaUBKTNV-7" target="EH7DkAVhaPCO1xRlEi8g-92">
          <mxGeometry relative="1" as="geometry">
            <Array as="points">
              <mxPoint x="780" y="-100" />
              <mxPoint x="780" y="830" />
            </Array>
          </mxGeometry>
        </mxCell>
      </root>
    </mxGraphModel>
  </diagram>
</mxfile>
